<svg width="120" height="127" viewBox="0 0 120 127" fill="none" xmlns="http://www.w3.org/2000/svg">
<path fill-rule="evenodd" clip-rule="evenodd" d="M3.94264 1C3.94264 1 11.8878 13.8699 25.4239 20.0124C38.9601 26.1548 41.9027 30.5423 41.9027 30.5423C41.9027 30.5423 46.611 35.8072 53.0848 38.1472C59.5586 40.4872 56.9102 27.3248 68.9751 33.7597C68.9751 33.7597 71.6234 35.8072 69.8579 39.3172L80.4514 36.3922C80.4514 36.3922 82.8055 35.5147 94.2818 35.5147C105.758 35.5147 108.995 32.8823 118.411 27.0323C118.411 27.0323 115.469 30.5423 112.526 32.2973C112.526 32.2973 117.529 30.8348 119 28.4948C119 28.4948 118.411 31.1273 113.115 33.1748C113.115 33.1748 116.352 32.5898 117.529 31.7123C117.529 31.7123 114.586 34.6372 111.349 35.5147C111.349 35.5147 111.938 35.8072 112.526 35.8072C112.526 35.8072 111.349 36.9772 107.818 37.5622C107.818 37.5622 107.818 37.8547 107.524 38.1472C107.524 38.1472 104.875 40.1947 102.521 39.6097C102.521 39.6097 101.05 41.0722 97.2244 41.3647C97.2244 41.3647 94.8703 42.8272 93.1047 42.8272C93.1047 42.8272 92.8105 43.9972 90.4564 44.5822C90.4564 44.5822 88.6908 46.3372 85.7481 46.3372C85.7481 46.3372 84.2768 48.9696 82.217 48.0921C82.217 48.0921 79.8628 50.7246 78.3915 49.5546C78.3915 49.5546 76.0374 51.6021 74.5661 51.0171C74.5661 51.0171 72.212 53.6496 70.7407 52.4796C70.7407 52.4796 67.2095 54.8196 66.0324 53.6496C66.0324 53.6496 65.1496 55.1121 64.8554 54.8196C64.8554 54.8196 63.0898 57.7446 58.0873 62.4245C58.0873 62.4245 55.4389 66.227 55.1446 66.5195C54.8504 66.812 56.616 116.829 55.7332 122.387C54.8504 127.944 53.6733 126.189 53.3791 122.387C53.0848 118.584 52.202 108.054 52.4963 106.884C52.4963 106.884 50.7307 107.762 50.4364 104.544C50.1421 101.327 50.4364 89.0418 50.4364 89.0418C50.4364 89.0418 47.788 90.2118 48.3766 83.1919C48.3766 83.1919 45.7282 88.1643 45.4339 82.0219C45.4339 82.0219 40.7257 83.4844 41.9027 79.9744C41.9027 79.9744 34.8404 86.7018 33.9576 84.6544C33.9576 84.6544 14.2419 108.932 11.2993 111.564C8.35661 114.197 4.53117 116.244 8.94514 110.394C8.94514 110.394 37.783 72.662 40.7257 70.0295C40.7257 70.0295 43.3741 66.227 43.9626 65.3495C44.5511 64.472 46.3167 59.7921 46.0224 55.9896C46.0224 55.9896 45.4339 54.2346 45.1397 53.6496C45.1397 53.6496 42.197 53.3571 42.197 51.6021C42.197 51.6021 39.2544 51.0171 39.2544 49.5546C39.2544 49.5546 35.7232 49.2621 36.0175 47.2146C36.0175 47.2146 31.3092 46.3372 31.3092 43.4122C31.3092 43.4122 27.4838 42.5347 28.0723 40.1947C28.0723 40.1947 23.9526 39.3172 24.8354 36.9772C24.8354 36.9772 20.4214 34.9297 21.8928 33.1748C21.8928 33.1748 18.0673 32.0048 18.9501 29.9573C18.9501 29.9573 15.1247 28.7873 16.3017 26.1548C16.3017 26.1548 10.4165 22.9373 13.0648 21.7673C13.0648 21.7673 8.35661 19.7199 10.4165 18.8424C10.4165 18.8424 2.47132 16.2099 8.35661 15.9174C8.35661 15.9174 -7.82793 7.43495 8.94514 13.2849C8.94514 13.2849 1.58853 8.89744 1 6.55746C1 6.55746 6.00249 10.3599 7.76808 10.6524C7.76808 10.6524 0.705736 3.63248 1.58853 3.33998C1.58853 3.33998 7.47382 9.48244 10.4165 10.6524C10.4165 10.6524 3.35411 1.87749 3.35411 1.2925C3.35411 0.707502 3.94264 1 3.94264 1Z" fill="#EA4F3C"/>
<path fill-rule="evenodd" clip-rule="evenodd" d="M3.94264 1C3.94264 1 11.8878 13.8699 25.4239 20.0124C38.9601 26.1548 41.9027 30.5423 41.9027 30.5423C41.9027 30.5423 46.611 35.8072 53.0848 38.1472C59.5586 40.4872 56.9102 27.3248 68.9751 33.7597C68.9751 33.7597 71.6234 35.8072 69.8579 39.3172L80.4514 36.3922C80.4514 36.3922 82.8055 35.5147 94.2818 35.5147C105.758 35.5147 108.995 32.8823 118.411 27.0323C118.411 27.0323 115.469 30.5423 112.526 32.2973C112.526 32.2973 117.529 30.8348 119 28.4948C119 28.4948 118.411 31.1273 113.115 33.1748C113.115 33.1748 116.352 32.5898 117.529 31.7123C117.529 31.7123 114.586 34.6372 111.349 35.5147C111.349 35.5147 111.938 35.8072 112.526 35.8072C112.526 35.8072 111.349 36.9772 107.818 37.5622C107.818 37.5622 107.818 37.8547 107.524 38.1472C107.524 38.1472 104.875 40.1947 102.521 39.6097C102.521 39.6097 101.05 41.0722 97.2244 41.3647C97.2244 41.3647 94.8703 42.8272 93.1047 42.8272C93.1047 42.8272 92.8105 43.9972 90.4564 44.5822C90.4564 44.5822 88.6908 46.3372 85.7481 46.3372C85.7481 46.3372 84.2768 48.9696 82.217 48.0921C82.217 48.0921 79.8628 50.7246 78.3915 49.5546C78.3915 49.5546 76.0374 51.6021 74.5661 51.0171C74.5661 51.0171 72.212 53.6496 70.7407 52.4796C70.7407 52.4796 67.2095 54.8196 66.0324 53.6496C66.0324 53.6496 65.1496 55.1121 64.8554 54.8196C64.8554 54.8196 63.0898 57.7446 58.0873 62.4245C58.0873 62.4245 55.4389 66.227 55.1446 66.5195C54.8504 66.812 56.616 116.829 55.7332 122.387C54.8504 127.944 53.6733 126.189 53.3791 122.387C53.0848 118.584 52.202 108.054 52.4963 106.884C52.4963 106.884 50.7307 107.762 50.4364 104.544C50.1421 101.327 50.4364 89.0418 50.4364 89.0418C50.4364 89.0418 47.788 90.2118 48.3766 83.1919C48.3766 83.1919 45.7282 88.1643 45.4339 82.0219C45.4339 82.0219 40.7257 83.4844 41.9027 79.9744C41.9027 79.9744 34.8404 86.7018 33.9576 84.6544C33.9576 84.6544 14.2419 108.932 11.2993 111.564C8.35661 114.197 4.53117 116.244 8.94514 110.394C8.94514 110.394 37.783 72.662 40.7257 70.0295C40.7257 70.0295 43.3741 66.227 43.9626 65.3495C44.5511 64.472 46.3167 59.7921 46.0224 55.9896C46.0224 55.9896 45.4339 54.2346 45.1397 53.6496C45.1397 53.6496 42.197 53.3571 42.197 51.6021C42.197 51.6021 39.2544 51.0171 39.2544 49.5546C39.2544 49.5546 35.7232 49.2621 36.0175 47.2146C36.0175 47.2146 31.3092 46.3372 31.3092 43.4122C31.3092 43.4122 27.4838 42.5347 28.0723 40.1947C28.0723 40.1947 23.9526 39.3172 24.8354 36.9772C24.8354 36.9772 20.4214 34.9297 21.8928 33.1748C21.8928 33.1748 18.0673 32.0048 18.9501 29.9573C18.9501 29.9573 15.1247 28.7873 16.3017 26.1548C16.3017 26.1548 10.4165 22.9373 13.0648 21.7673C13.0648 21.7673 8.35661 19.7199 10.4165 18.8424C10.4165 18.8424 2.47132 16.2099 8.35661 15.9174C8.35661 15.9174 -7.82793 7.43495 8.94514 13.2849C8.94514 13.2849 1.58853 8.89744 1 6.55746C1 6.55746 6.00249 10.3599 7.76808 10.6524C7.76808 10.6524 0.705736 3.63248 1.58853 3.33998C1.58853 3.33998 7.47382 9.48244 10.4165 10.6524C10.4165 10.6524 3.35411 1.87749 3.35411 1.2925C3.35411 0.707502 3.94264 1 3.94264 1Z" fill="url(#paint0_linear)" style="mix-blend-mode:lighten"/>
<path fill-rule="evenodd" clip-rule="evenodd" d="M3.94264 1C3.94264 1 11.8878 13.8699 25.4239 20.0124C38.9601 26.1548 41.9027 30.5423 41.9027 30.5423C41.9027 30.5423 46.611 35.8072 53.0848 38.1472C59.5586 40.4872 56.9102 27.3248 68.9751 33.7597C68.9751 33.7597 71.6234 35.8072 69.8579 39.3172L80.4514 36.3922C80.4514 36.3922 82.8055 35.5147 94.2818 35.5147C105.758 35.5147 108.995 32.8823 118.411 27.0323C118.411 27.0323 115.469 30.5423 112.526 32.2973C112.526 32.2973 117.529 30.8348 119 28.4948C119 28.4948 118.411 31.1273 113.115 33.1748C113.115 33.1748 116.352 32.5898 117.529 31.7123C117.529 31.7123 114.586 34.6372 111.349 35.5147C111.349 35.5147 111.938 35.8072 112.526 35.8072C112.526 35.8072 111.349 36.9772 107.818 37.5622C107.818 37.5622 107.818 37.8547 107.524 38.1472C107.524 38.1472 104.875 40.1947 102.521 39.6097C102.521 39.6097 101.05 41.0722 97.2244 41.3647C97.2244 41.3647 94.8703 42.8272 93.1047 42.8272C93.1047 42.8272 92.8105 43.9972 90.4564 44.5822C90.4564 44.5822 88.6908 46.3372 85.7481 46.3372C85.7481 46.3372 84.2768 48.9696 82.217 48.0921C82.217 48.0921 79.8628 50.7246 78.3915 49.5546C78.3915 49.5546 76.0374 51.6021 74.5661 51.0171C74.5661 51.0171 72.212 53.6496 70.7407 52.4796C70.7407 52.4796 67.2095 54.8196 66.0324 53.6496C66.0324 53.6496 65.1496 55.1121 64.8554 54.8196C64.8554 54.8196 63.0898 57.7446 58.0873 62.4245C58.0873 62.4245 55.4389 66.227 55.1446 66.5195C54.8504 66.812 56.616 116.829 55.7332 122.387C54.8504 127.944 53.6733 126.189 53.3791 122.387C53.0848 118.584 52.202 108.054 52.4963 106.884C52.4963 106.884 50.7307 107.762 50.4364 104.544C50.1421 101.327 50.4364 89.0418 50.4364 89.0418C50.4364 89.0418 47.788 90.2118 48.3766 83.1919C48.3766 83.1919 45.7282 88.1643 45.4339 82.0219C45.4339 82.0219 40.7257 83.4844 41.9027 79.9744C41.9027 79.9744 34.8404 86.7018 33.9576 84.6544C33.9576 84.6544 14.2419 108.932 11.2993 111.564C8.35661 114.197 4.53117 116.244 8.94514 110.394C8.94514 110.394 37.783 72.662 40.7257 70.0295C40.7257 70.0295 43.3741 66.227 43.9626 65.3495C44.5511 64.472 46.3167 59.7921 46.0224 55.9896C46.0224 55.9896 45.4339 54.2346 45.1397 53.6496C45.1397 53.6496 42.197 53.3571 42.197 51.6021C42.197 51.6021 39.2544 51.0171 39.2544 49.5546C39.2544 49.5546 35.7232 49.2621 36.0175 47.2146C36.0175 47.2146 31.3092 46.3372 31.3092 43.4122C31.3092 43.4122 27.4838 42.5347 28.0723 40.1947C28.0723 40.1947 23.9526 39.3172 24.8354 36.9772C24.8354 36.9772 20.4214 34.9297 21.8928 33.1748C21.8928 33.1748 18.0673 32.0048 18.9501 29.9573C18.9501 29.9573 15.1247 28.7873 16.3017 26.1548C16.3017 26.1548 10.4165 22.9373 13.0648 21.7673C13.0648 21.7673 8.35661 19.7199 10.4165 18.8424C10.4165 18.8424 2.47132 16.2099 8.35661 15.9174C8.35661 15.9174 -7.82793 7.43495 8.94514 13.2849C8.94514 13.2849 1.58853 8.89744 1 6.55746C1 6.55746 6.00249 10.3599 7.76808 10.6524C7.76808 10.6524 0.705736 3.63248 1.58853 3.33998C1.58853 3.33998 7.47382 9.48244 10.4165 10.6524C10.4165 10.6524 3.35411 1.87749 3.35411 1.2925C3.35411 0.707502 3.94264 1 3.94264 1Z" stroke="#080000"/>
<path fill-rule="evenodd" clip-rule="evenodd" d="M34.9375 83.5441C35.5055 81.8348 42.0727 72.9155 43.4417 72.3662C43.4417 72.3662 41.6822 80.8967 47.2539 70.8954C47.2539 70.8954 43.7349 84.1324 52.2391 71.1896C52.2391 71.1896 53.7565 103.916 53.7053 105.9C53.6542 107.884 51.9458 107.077 51.3594 105.312C50.7729 103.547 50.9203 99.8497 51.3594 88.8389C51.3594 88.8389 48.4269 90.6039 49.3066 82.6617C49.3066 82.6617 46.3741 87.9565 46.3741 81.7792C46.3741 81.7792 41.0957 83.25 43.1484 79.426C43.1484 79.426 39.6295 83.25 36.4037 85.0149C34.8673 85.8555 34.6443 84.4266 34.9375 83.5441Z" fill="#140D0A"/>
<path fill-rule="evenodd" clip-rule="evenodd" d="M34.9375 83.5441C35.5055 81.8348 42.0727 72.9155 43.4417 72.3662C43.4417 72.3662 41.6822 80.8967 47.2539 70.8954C47.2539 70.8954 43.7349 84.1324 52.2391 71.1896C52.2391 71.1896 53.7565 103.916 53.7053 105.9C53.6542 107.884 51.9458 107.077 51.3594 105.312C50.7729 103.547 50.9203 99.8497 51.3594 88.8389C51.3594 88.8389 48.4269 90.6039 49.3066 82.6617C49.3066 82.6617 46.3741 87.9565 46.3741 81.7792C46.3741 81.7792 41.0957 83.25 43.1484 79.426C43.1484 79.426 39.6295 83.25 36.4037 85.0149C34.8673 85.8555 34.6443 84.4266 34.9375 83.5441Z" fill="url(#paint1_linear)" fill-opacity="0.5" style="mix-blend-mode:lighten"/>
<path fill-rule="evenodd" clip-rule="evenodd" d="M34.9375 83.5441C35.5055 81.8348 42.0727 72.9155 43.4417 72.3662C43.4417 72.3662 41.6822 80.8967 47.2539 70.8954C47.2539 70.8954 43.7349 84.1324 52.2391 71.1896C52.2391 71.1896 53.7565 103.916 53.7053 105.9C53.6542 107.884 51.9458 107.077 51.3594 105.312C50.7729 103.547 50.9203 99.8497 51.3594 88.8389C51.3594 88.8389 48.4269 90.6039 49.3066 82.6617C49.3066 82.6617 46.3741 87.9565 46.3741 81.7792C46.3741 81.7792 41.0957 83.25 43.1484 79.426C43.1484 79.426 39.6295 83.25 36.4037 85.0149C34.8673 85.8555 34.6443 84.4266 34.9375 83.5441Z" stroke="black"/>
<path fill-rule="evenodd" clip-rule="evenodd" d="M52.3268 37.6601C52.3268 37.6601 54.0851 38.5703 48.8101 48.5822C48.8101 48.5822 48.8101 49.189 50.2753 50.4026C50.2753 50.4026 51.1545 51.3127 48.2239 57.684C48.2239 57.684 47.9309 58.8975 49.3962 57.684C49.3962 57.684 46.7586 70.4264 57.6018 63.145C57.6018 63.145 68.445 55.2568 67.8589 42.211C67.8589 42.211 68.445 41.3008 68.7381 40.9974C69.0311 40.694 69.3242 39.7839 69.6172 39.1771C69.9103 38.5703 71.9617 34.3228 66.3936 32.1991C60.8255 30.0753 58.481 34.0194 57.6018 35.8398C57.2033 36.6649 56.071 38.0203 54.9643 38.2669C53.8576 38.5135 52.3268 37.6601 52.3268 37.6601Z" fill="#E2D7D0" stroke="black" stroke-width="0.5"/>
<path fill-rule="evenodd" clip-rule="evenodd" d="M66.2933 38.6627C66.2933 38.6627 69.0466 39.324 69.3525 39.6546C69.6585 39.9852 69.9644 39.9852 71.7999 42.2996C71.7999 42.2996 71.7999 42.9609 69.9644 42.2996C68.1288 41.6384 66.2933 39.9852 66.2933 39.9852V38.6627Z" fill="#140D0A" stroke="black"/>
<path fill-rule="evenodd" clip-rule="evenodd" d="M51.2773 61.4987C50.9617 61.7308 50.3304 63.1236 50.646 63.5878L51.2773 62.6593C51.2773 62.6593 51.2773 64.0521 51.2773 63.82C51.2773 63.82 51.9086 62.8915 51.9086 62.6593C51.9086 62.6593 52.5399 63.1236 52.2243 63.3557C52.2243 63.3557 53.1712 63.82 52.8556 62.1951C52.8556 62.1951 51.593 61.2666 51.2773 61.4987Z" fill="#140D0A" stroke="black"/>
<path fill-rule="evenodd" clip-rule="evenodd" d="M58.4261 60.6753C58.4261 60.6753 57.6399 61.5998 57.6399 62.5243C57.6399 63.4489 57.7971 62.8325 57.7971 62.8325C57.7971 62.8325 58.4261 61.908 58.4261 60.9835C58.4261 60.0589 58.4261 60.6753 58.4261 60.6753Z" fill="#140D0A" stroke="black"/>
<path fill-rule="evenodd" clip-rule="evenodd" d="M62.6417 36.3782C63.4167 36.1003 63.9334 36.6561 63.9334 37.2118C63.9334 37.7676 63.4167 38.0455 62.9 37.7676C62.3833 37.4897 62.125 36.9339 62.6417 36.3782Z" fill="#140D0A" stroke="black"/>
<defs>
<linearGradient id="paint0_linear" x1="64.5207" y1="79.0559" x2="85.2738" y2="30.4571" gradientUnits="userSpaceOnUse">
<stop stop-color="white" stop-opacity="0.5"/>
<stop offset="1" stop-opacity="0.5"/>
</linearGradient>
<linearGradient id="paint1_linear" x1="40.1411" y1="70.8954" x2="40.1411" y2="86.6997" gradientUnits="userSpaceOnUse">
<stop stop-color="white" stop-opacity="0.5"/>
<stop offset="1" stop-opacity="0.5"/>
</linearGradient>
</defs>
</svg>
